<svg width="387" height="2890" viewBox="0 0 387 2890" fill="none" xmlns="http://www.w3.org/2000/svg">
<g filter="url(#filter0_d_1_12)">
<path d="M199.475 624.261L200.182 621.863L200.118 621.844L200.053 621.828L199.475 624.261ZM199.475 1309.58L200.147 1307.17L200.131 1307.17L200.114 1307.16L199.475 1309.58ZM151.408 1791.54L152.556 1789.32L152.535 1789.31L152.515 1789.3L151.408 1791.54ZM199.475 2478.38L200.212 2475.99L200.177 2475.98L200.141 2475.97L199.475 2478.38ZM199.475 2763.09L198.464 2760.8L199.475 2763.09ZM212.017 2880.38C212.777 2881.53 214.327 2881.85 215.48 2881.09L234.267 2868.71C235.42 2867.95 235.739 2866.4 234.979 2865.24C234.219 2864.09 232.669 2863.77 231.516 2864.53L214.816 2875.54L203.811 2858.84C203.051 2857.68 201.5 2857.37 200.348 2858.13C199.195 2858.89 198.876 2860.44 199.636 2861.59L212.017 2880.38ZM198.211 5.15686C232.124 25.0327 269.411 51.6416 301.163 82.1196C332.944 112.625 359.012 146.847 370.747 181.923C382.436 216.862 379.93 252.674 354.514 286.837C328.984 321.154 280.161 354.046 198.653 382.445L200.298 387.167C282.217 358.625 332.132 325.299 358.525 289.822C385.032 254.192 387.633 216.636 375.488 180.336C363.39 144.173 336.684 109.285 304.626 78.5124C272.539 47.7127 234.921 20.8765 200.739 0.843135L198.211 5.15686ZM198.653 382.445C116.859 410.943 67.0564 438.266 40.6875 463.921C27.4747 476.776 20.0049 489.348 17.4793 501.576C14.9434 513.854 17.4509 525.504 23.6637 536.344C35.9841 557.84 62.9841 576.357 94.9885 591.466C127.108 606.63 164.735 618.574 198.897 626.693L200.053 621.828C166.12 613.764 128.842 601.919 97.123 586.944C65.2883 571.915 39.5146 553.944 28.0017 533.858C22.2979 523.906 20.1239 513.491 22.3759 502.587C24.6382 491.634 31.4259 479.908 44.1742 467.504C69.7278 442.643 118.663 415.609 200.298 387.167L198.653 382.445ZM198.768 626.659C232.081 636.48 268.681 651.611 299.825 671.607C331.007 691.628 356.462 716.359 367.906 745.277C379.281 774.019 376.972 807.297 351.829 844.964C326.609 882.748 278.442 924.875 198.232 970.852L200.718 975.19C281.22 929.046 330.149 886.452 355.988 847.74C381.905 808.912 384.618 773.919 372.556 743.437C360.562 713.131 334.121 687.685 302.526 667.4C270.892 647.089 233.832 631.784 200.182 621.863L198.768 626.659ZM198.232 970.852C117.739 1016.99 68.8157 1059.07 42.9764 1096.95C17.0572 1134.94 14.3144 1168.81 26.409 1198.06C38.4233 1227.12 64.8967 1251.16 96.4895 1270.1C128.128 1289.07 165.189 1303.1 198.836 1312L200.114 1307.16C166.798 1298.35 130.2 1284.48 99.0605 1265.82C67.8754 1247.12 42.4525 1223.78 31.0296 1196.15C19.6872 1168.72 21.9666 1136.61 47.1068 1099.76C72.3268 1062.8 120.499 1021.17 200.718 975.19L198.232 970.852ZM198.803 1311.99C229.65 1320.6 263.538 1332.72 292.372 1347.38C321.317 1362.1 344.73 1379.17 355.18 1397.5C360.355 1406.57 362.301 1415.87 360.276 1425.36C358.242 1434.91 352.132 1444.98 340.583 1455.43C317.417 1476.4 272.99 1498.36 198.769 1520.2L200.181 1525C274.55 1503.11 319.897 1480.9 343.939 1459.14C355.994 1448.22 362.847 1437.28 365.166 1426.41C367.494 1415.49 365.184 1404.95 359.524 1395.02C348.304 1375.35 323.736 1357.72 294.638 1342.92C265.429 1328.07 231.212 1315.84 200.147 1307.17L198.803 1311.99ZM198.769 1520.2C124.332 1542.1 77.0023 1566.65 49.7231 1592.2C22.3119 1617.88 15.0775 1644.65 21.1392 1670.48C27.1416 1696.05 46.079 1720.23 69.9984 1741.24C93.9668 1762.3 123.209 1780.41 150.301 1793.78L152.515 1789.3C125.706 1776.06 96.8581 1758.18 73.2983 1737.49C49.6893 1716.75 31.6599 1693.42 26.0069 1669.33C20.4132 1645.5 26.8348 1620.49 53.141 1595.85C79.5791 1571.09 126.028 1546.82 200.181 1525L198.769 1520.2ZM150.26 1793.76C190.453 1814.54 235.249 1842.48 274.387 1874.65C313.559 1906.84 346.885 1943.12 364.374 1980.55C381.807 2017.86 383.475 2056.18 359.607 2093C335.612 2130.01 285.575 2165.88 198.622 2197.43L200.328 2202.13C287.671 2170.44 338.932 2134.08 363.803 2095.72C388.801 2057.16 386.903 2016.96 368.904 1978.44C350.961 1940.04 316.988 1903.19 277.562 1870.78C238.101 1838.35 192.998 1810.23 152.556 1789.32L150.26 1793.76ZM198.622 2197.43C111.379 2229.09 58.2792 2259.96 30.1825 2289.3C16.1036 2304 8.19913 2318.42 5.53228 2332.46C2.8595 2346.53 5.49398 2359.98 12.0687 2372.61C25.1402 2397.71 53.8518 2419.72 88.0041 2437.9C122.251 2456.13 162.375 2470.72 198.809 2480.79L200.141 2475.97C163.952 2465.97 124.191 2451.5 90.3534 2433.49C56.4215 2415.43 28.8502 2394.01 16.5036 2370.3C10.3693 2358.52 8.01091 2346.21 10.4445 2333.4C12.8839 2320.55 20.1849 2306.97 33.7936 2292.76C61.072 2264.27 113.276 2233.72 200.328 2202.13L198.622 2197.43ZM198.739 2480.77C230.206 2490.47 264.775 2504.67 294.189 2522.57C323.666 2540.51 347.645 2561.97 358.4 2586.04C363.755 2598.03 365.834 2610.66 363.697 2623.9C361.558 2637.16 355.166 2651.19 343.326 2665.89C319.598 2695.36 274.199 2727.3 198.464 2760.8L200.486 2765.37C276.476 2731.76 322.745 2699.43 347.221 2669.03C359.483 2653.8 366.327 2638.98 368.633 2624.7C370.941 2610.39 368.674 2596.78 362.965 2584C351.594 2558.55 326.578 2536.43 296.788 2518.3C266.935 2500.14 231.963 2485.78 200.212 2475.99L198.739 2480.77ZM198.464 2760.8C183.155 2767.57 175.944 2774.45 175.46 2782.81C175.225 2786.86 176.633 2790.85 178.767 2794.75C180.904 2798.65 183.913 2802.72 187.173 2806.97C200.346 2824.13 218.447 2845.45 211.655 2878.5L216.553 2879.5C223.868 2843.91 204.091 2820.8 191.14 2803.92C187.869 2799.66 185.082 2795.87 183.153 2792.35C181.222 2788.82 180.295 2785.81 180.452 2783.1C180.752 2777.91 185.23 2772.12 200.486 2765.37L198.464 2760.8Z" fill="white"/>
</g>
<defs>
<filter id="filter0_d_1_12" x="0.499794" y="0.84314" width="386" height="2888.66" filterUnits="userSpaceOnUse" color-interpolation-filters="sRGB">
<feFlood flood-opacity="0" result="BackgroundImageFix"/>
<feColorMatrix in="SourceAlpha" type="matrix" values="0 0 0 0 0 0 0 0 0 0 0 0 0 0 0 0 0 0 127 0" result="hardAlpha"/>
<feOffset dy="4"/>
<feGaussianBlur stdDeviation="2"/>
<feComposite in2="hardAlpha" operator="out"/>
<feColorMatrix type="matrix" values="0 0 0 0 0 0 0 0 0 0 0 0 0 0 0 0 0 0 0.25 0"/>
<feBlend mode="normal" in2="BackgroundImageFix" result="effect1_dropShadow_1_12"/>
<feBlend mode="normal" in="SourceGraphic" in2="effect1_dropShadow_1_12" result="shape"/>
</filter>
</defs>
</svg>
